<svg width="20" height="21" viewBox="0 0 20 21" fill="none" xmlns="http://www.w3.org/2000/svg">
<path fill-rule="evenodd" clip-rule="evenodd" d="M13.5236 0.835359L15.1946 1.2458C19.387 2.27716 20.6677 4.45564 19.6872 8.85466L18.7066 13.2537C17.8661 17.0529 16.2052 18.5894 13.0834 18.2737C12.5831 18.2316 12.0428 18.1369 11.4625 17.9896L9.7815 17.5686C5.60909 16.5267 4.31835 14.3588 5.29891 9.95969L6.27947 5.55015C6.47959 4.6556 6.71973 3.87682 7.0199 3.23485C8.19059 0.688022 10.1817 0.00395751 13.5236 0.835359ZM12.5831 12.4855C12.9233 12.4855 13.2235 12.2539 13.3135 11.8961C13.4136 11.4752 13.1734 11.0437 12.7632 10.9384L9.85154 10.1596C9.45131 10.0544 9.04107 10.307 8.94102 10.7279C8.84096 11.1489 9.0811 11.5804 9.48133 11.6856L12.393 12.4644C12.4019 12.4658 12.4106 12.4671 12.4192 12.4684C12.4783 12.4774 12.5307 12.4855 12.5831 12.4855ZM15.5148 8.92833C15.855 8.92833 16.1551 8.6968 16.2452 8.33902C16.3453 7.90754 16.1051 7.47605 15.6949 7.38133L10.8421 6.08687C10.4419 5.98163 10.0316 6.23421 9.93158 6.65517C9.83153 7.07614 10.0717 7.50762 10.4719 7.61286L15.3247 8.90728C15.3336 8.90862 15.3423 8.90996 15.3509 8.91127C15.41 8.92031 15.4624 8.92833 15.5148 8.92833ZM10.7302 19.4135C10.9979 19.3196 10.9727 18.9408 10.6978 18.8736L9.54949 18.5926C4.83678 17.4139 3.22586 14.6776 4.32649 9.7208L5.30705 5.31119C5.36036 5.07941 5.41494 4.85692 5.47167 4.64373C5.58613 4.21365 5.19384 3.78841 4.79074 3.92881L4.26645 4.11144C0.294182 5.45852 -0.766426 7.66857 0.514307 11.8467L1.79504 16.0037C3.08578 20.1817 5.17697 21.3078 9.14926 19.9607L10.7302 19.4135Z" fill="#F7F7F7"/>
</svg>
