<svg width="20" height="20" viewBox="0 0 20 20" fill="none" xmlns="http://www.w3.org/2000/svg">
<path fill-rule="evenodd" clip-rule="evenodd" d="M13.5236 0.335237L15.1946 0.745676C19.387 1.77704 20.6677 3.95552 19.6872 8.35454L18.7066 12.7536C17.8661 16.5528 16.2052 18.0893 13.0834 17.7736C12.5831 17.7315 12.0428 17.6368 11.4625 17.4894L9.7815 17.0685C5.60909 16.0266 4.31835 13.8586 5.29891 9.45957L6.27947 5.05002C6.47959 4.15548 6.71973 3.37669 7.0199 2.73473C8.19059 0.1879 10.1817 -0.496165 13.5236 0.335237ZM12.5831 11.9853C12.9233 11.9853 13.2235 11.7538 13.3135 11.396C13.4136 10.975 13.1734 10.5435 12.7632 10.4383L9.85154 9.65953C9.45131 9.55429 9.04107 9.80686 8.94102 10.2278C8.84096 10.6488 9.0811 11.0803 9.48133 11.1855L12.393 11.9643C12.4019 11.9656 12.4106 11.967 12.4192 11.9683C12.4783 11.9773 12.5307 11.9853 12.5831 11.9853ZM15.5148 8.42821C15.855 8.42821 16.1551 8.19668 16.2452 7.8389C16.3453 7.40742 16.1051 6.97593 15.6949 6.88121L10.8421 5.58675C10.4419 5.48151 10.0316 5.73409 9.93158 6.15505C9.83153 6.57601 10.0717 7.0075 10.4719 7.11274L15.3247 8.40716C15.3336 8.4085 15.3423 8.40983 15.3509 8.41115C15.41 8.42019 15.4624 8.42821 15.5148 8.42821ZM10.7302 18.9134C10.9979 18.8195 10.9727 18.4407 10.6978 18.3735L9.54949 18.0925C4.83678 16.9138 3.22586 14.1775 4.32649 9.22068L5.30705 4.81107C5.36036 4.57929 5.41494 4.3568 5.47167 4.14361C5.58613 3.71352 5.19384 3.28829 4.79074 3.42869L4.26645 3.61131C0.294182 4.9584 -0.766426 7.16845 0.514307 11.3465L1.79504 15.5036C3.08578 19.6816 5.17697 20.8077 9.14926 19.4606L10.7302 18.9134Z" fill="#767B91"/>
</svg>
