<svg width="20" height="21" viewBox="0 0 20 21" fill="none" xmlns="http://www.w3.org/2000/svg">
<path fill-rule="evenodd" clip-rule="evenodd" d="M6.83953 0.5H6.96638C11.2988 0.5 13.387 2.20399 13.748 6.02093C13.787 6.42015 13.4943 6.78042 13.0845 6.81937C12.6942 6.85831 12.3234 6.55647 12.2843 6.15724C12.0014 3.0998 10.5572 1.96056 6.95662 1.96056H6.82977C2.85838 1.96056 1.45327 3.3627 1.45327 7.3257V13.6743C1.45327 17.6373 2.85838 19.0394 6.82977 19.0394H6.95662C10.5767 19.0394 12.0209 17.8807 12.2843 14.7649C12.3331 14.3656 12.6746 14.0638 13.0845 14.1027C13.4943 14.1319 13.787 14.4922 13.7578 14.8914C13.426 18.7668 11.3281 20.5 6.96638 20.5H6.83953C2.04849 20.5 -0.000629425 18.4552 -0.000629425 13.6743V7.3257C-0.000629425 2.54479 2.04849 0.5 6.83953 0.5ZM17.5041 9.76991H7.07404C6.67397 9.76991 6.34221 10.101 6.34221 10.5002C6.34221 10.8994 6.67397 11.2305 7.07404 11.2305H17.5048L15.4846 13.2463C15.2016 13.5287 15.2016 13.9961 15.4846 14.2785C15.7676 14.5608 16.236 14.5608 16.5189 14.2785L19.7878 11.0166C20.0707 10.7342 20.0707 10.2668 19.7878 9.98444L16.5189 6.72251C16.3726 6.57646 16.1872 6.5083 16.0018 6.5083C15.8164 6.5083 15.6212 6.57646 15.4846 6.72251C15.2016 7.00489 15.2016 7.47227 15.4846 7.75464L17.5041 9.76991Z" fill="#F7F7F7"/>
</svg>
