<svg width="60" height="66" viewBox="0 0 60 66" fill="none" xmlns="http://www.w3.org/2000/svg">
<path d="M18 45C18 41.6863 15.3137 39 12 39C8.68629 39 6 41.6863 6 45V57C6 60.3137 8.68629 63 12 63C15.3137 63 18 60.3137 18 57V45Z" stroke="#666666" stroke-width="5" stroke-linecap="round" stroke-linejoin="round"/>
<path d="M54 9C54 5.68629 51.3137 3 48 3C44.6863 3 42 5.68629 42 9V21C42 24.3137 44.6863 27 48 27C51.3137 27 54 24.3137 54 21V9Z" stroke="#666666" stroke-width="5" stroke-linecap="round" stroke-linejoin="round"/>
<path d="M12 39V21C12 18.6131 12.9482 16.3239 14.636 14.636C16.3239 12.9482 18.6131 12 21 12V12C23.3869 12 25.6761 12.9482 27.364 14.636C29.0518 16.3239 30 18.6131 30 21V45C30 47.3869 30.9482 49.6761 32.636 51.364C34.3239 53.0518 36.6131 54 39 54C41.3869 54 43.6761 53.0518 45.364 51.364C47.0518 49.6761 48 47.3869 48 45V27" stroke="#666666" stroke-width="5" stroke-linecap="round" stroke-linejoin="round"/>
</svg>
