<svg width="20" height="20" viewBox="0 0 20 20" fill="none" xmlns="http://www.w3.org/2000/svg">
<path d="M17.6495 16.7952H15.8547C15.6167 16.7952 15.3884 16.6969 15.2201 16.5219C15.0518 16.3469 14.9573 16.1096 14.9573 15.8621V4.04329C14.9573 3.79583 15.0518 3.5585 15.2201 3.38352C15.3884 3.20853 15.6167 3.11023 15.8547 3.11023H17.6495C17.8875 3.11023 18.1158 3.20853 18.2841 3.38352C18.4524 3.5585 18.5469 3.79583 18.5469 4.04329V15.8621C18.5469 16.1096 18.4524 16.3469 18.2841 16.5219C18.1158 16.6969 17.8875 16.7952 17.6495 16.7952ZM12.8633 16.7952H11.0685C10.8305 16.7952 10.6022 16.6969 10.4339 16.5219C10.2656 16.3469 10.1711 16.1096 10.1711 15.8621V7.15351C10.1711 6.90604 10.2656 6.66872 10.4339 6.49373C10.6022 6.31875 10.8305 6.22044 11.0685 6.22044H12.8633C13.1013 6.22044 13.3296 6.31875 13.4979 6.49373C13.6662 6.66872 13.7607 6.90604 13.7607 7.15351V15.8621C13.7607 16.1096 13.6662 16.3469 13.4979 16.5219C13.3296 16.6969 13.1013 16.7952 12.8633 16.7952ZM8.0771 16.7952H6.28226C6.04425 16.7952 5.81599 16.6969 5.6477 16.5219C5.4794 16.3469 5.38485 16.1096 5.38485 15.8621V9.64168C5.38485 9.39422 5.4794 9.15689 5.6477 8.9819C5.81599 8.80692 6.04425 8.70862 6.28226 8.70862H8.0771C8.3151 8.70862 8.54337 8.80692 8.71166 8.9819C8.87996 9.15689 8.97451 9.39422 8.97451 9.64168V15.8621C8.97451 16.1096 8.87996 16.3469 8.71166 16.5219C8.54337 16.6969 8.3151 16.7952 8.0771 16.7952ZM3.29088 16.7952H1.49605C1.25804 16.7952 1.02978 16.6969 0.86148 16.5219C0.693182 16.3469 0.598633 16.1096 0.598633 15.8621V12.1299C0.598633 11.8824 0.693182 11.6451 0.86148 11.4701C1.02978 11.2951 1.25804 11.1968 1.49605 11.1968H3.29088C3.52889 11.1968 3.75715 11.2951 3.92545 11.4701C4.09375 11.6451 4.18829 11.8824 4.18829 12.1299V15.8621C4.18829 16.1096 4.09375 16.3469 3.92545 16.5219C3.75715 16.6969 3.52889 16.7952 3.29088 16.7952Z" fill="#2A324B"/>
</svg>
