<svg width="272" height="117" viewBox="0 0 272 117" fill="none" xmlns="http://www.w3.org/2000/svg">
<path d="M64.5 47.559C40 13.832 2 38.5575 2 64.5589C2 90.5603 37 115.832 64.5 82.059" stroke="url(#paint0_linear_202_2789)" stroke-width="3" stroke-linecap="round"/>
<circle cx="68.5" cy="65.1748" r="5" transform="rotate(90 68.5 65.1748)" fill="url(#paint1_linear_202_2789)"/>
<path d="M88.9619 76.5195C89.1598 73.7487 89.2588 67.6751 89.2588 58.2988H91.0029C91.1761 60.7233 91.5348 62.9251 92.0791 64.9043C92.6481 66.8835 93.4521 68.7018 94.4912 70.3594C95.5303 71.9922 96.9281 73.2663 98.6846 74.1816C100.441 75.097 102.494 75.5547 104.845 75.5547C107.566 75.5547 109.892 74.7012 111.821 72.9941C113.751 71.2871 114.716 68.7637 114.716 65.4238C114.716 63.9395 114.444 62.5664 113.899 61.3047C113.38 60.043 112.539 58.8431 111.376 57.7051C110.213 56.5671 109.001 55.5651 107.739 54.6992C106.502 53.8086 104.882 52.7572 102.878 51.5449C101.418 50.6543 100.231 49.9245 99.3154 49.3555C98.4248 48.7617 97.3857 48.0195 96.1982 47.1289C95.0107 46.2383 94.0583 45.3971 93.3408 44.6055C92.6481 43.7891 91.9554 42.8613 91.2627 41.8223C90.5947 40.7585 90.0999 39.6204 89.7783 38.4082C89.4814 37.196 89.333 35.8971 89.333 34.5117C89.333 32.3346 89.7165 30.3926 90.4834 28.6855C91.2751 26.9785 92.3389 25.6055 93.6748 24.5664C95.0107 23.5026 96.5199 22.6986 98.2021 22.1543C99.9092 21.61 101.715 21.3379 103.62 21.3379C105.179 21.3379 106.589 21.4987 107.851 21.8203C109.112 22.1419 110.04 22.4635 110.634 22.7852C111.252 23.1068 112.007 23.5645 112.897 24.1582C114.035 24.8757 114.901 25.2344 115.495 25.2344C115.965 25.2344 116.324 24.9746 116.571 24.4551C116.819 23.9108 117.017 23.0573 117.165 21.8945H118.909C118.662 24.8633 118.538 30.0339 118.538 37.4062H116.794C116.646 35.5013 116.299 33.7201 115.755 32.0625C115.235 30.3802 114.493 28.834 113.528 27.4238C112.563 25.9889 111.289 24.8633 109.706 24.0469C108.147 23.2057 106.354 22.7852 104.325 22.7852C101.604 22.7852 99.3773 23.6139 97.6455 25.2715C95.9137 26.9043 95.0479 29.0195 95.0479 31.6172C95.0479 32.3594 95.1097 33.0768 95.2334 33.7695C95.3571 34.4375 95.5674 35.0807 95.8643 35.6992C96.1859 36.293 96.4951 36.8372 96.792 37.332C97.1136 37.8268 97.5589 38.3464 98.1279 38.8906C98.7217 39.4102 99.2288 39.8555 99.6494 40.2266C100.07 40.5977 100.676 41.0553 101.468 41.5996C102.284 42.1191 102.927 42.5397 103.397 42.8613C103.892 43.1582 104.622 43.6035 105.587 44.1973C106.552 44.7663 107.294 45.2116 107.813 45.5332C109.149 46.3743 110.238 47.0794 111.079 47.6484C111.945 48.1927 112.91 48.8607 113.974 49.6523C115.037 50.4193 115.891 51.1243 116.534 51.7676C117.202 52.4108 117.882 53.1654 118.575 54.0312C119.268 54.8724 119.8 55.7135 120.171 56.5547C120.567 57.3958 120.888 58.3359 121.136 59.375C121.383 60.4141 121.507 61.5026 121.507 62.6406C121.507 65.7578 120.765 68.4297 119.28 70.6562C117.796 72.8581 115.854 74.4785 113.454 75.5176C111.079 76.5566 108.382 77.0762 105.364 77.0762C102.94 77.0762 100.948 76.8164 99.3896 76.2969C97.8311 75.8021 96.359 75.1217 94.9736 74.2559C93.8356 73.5384 92.9697 73.1797 92.376 73.1797C91.9059 73.1797 91.5472 73.4518 91.2998 73.9961C91.0524 74.5156 90.8545 75.3568 90.7061 76.5195H88.9619ZM130.067 22.1914C134.273 22.3398 141.423 22.4141 151.516 22.4141C161.536 22.4141 168.649 22.3398 172.854 22.1914C172.508 25.8034 172.335 29.0443 172.335 31.9141C172.335 34.487 172.409 36.5651 172.557 38.1484H170.813C170.615 36.1693 170.417 34.5859 170.22 33.3984C170.046 32.2109 169.774 31.0111 169.403 29.7988C169.057 28.5866 168.624 27.6712 168.104 27.0527C167.61 26.4095 166.954 25.8281 166.138 25.3086C165.321 24.7643 164.344 24.4056 163.206 24.2324C162.093 24.0345 160.732 23.9355 159.124 23.9355H155.005V67.168C155.005 68.4544 155.067 69.4935 155.19 70.2852C155.339 71.0768 155.561 71.7572 155.858 72.3262C156.155 72.8952 156.613 73.3281 157.231 73.625C157.875 73.8971 158.604 74.0951 159.421 74.2188C160.237 74.3424 161.326 74.429 162.686 74.4785V76C160.014 75.8516 156.291 75.7773 151.516 75.7773C146.445 75.7773 142.697 75.8516 140.272 76V74.4785C141.633 74.429 142.722 74.3424 143.538 74.2188C144.354 74.0951 145.072 73.8971 145.69 73.625C146.334 73.3281 146.804 72.8952 147.1 72.3262C147.397 71.7572 147.608 71.0768 147.731 70.2852C147.88 69.4935 147.954 68.4544 147.954 67.168V23.9355H143.835C142.227 23.9355 140.854 24.0345 139.716 24.2324C138.602 24.4056 137.625 24.7643 136.784 25.3086C135.968 25.8281 135.312 26.4095 134.817 27.0527C134.322 27.6712 133.889 28.5866 133.518 29.7988C133.172 30.9863 132.9 32.1862 132.702 33.3984C132.529 34.5859 132.343 36.1693 132.145 38.1484H130.401C130.55 36.5651 130.624 34.487 130.624 31.9141C130.624 28.9453 130.438 25.7044 130.067 22.1914ZM180.932 76V74.4785C182.763 74.4043 184.074 74.2064 184.866 73.8848C185.682 73.5632 186.251 72.9694 186.573 72.1035C186.919 71.2376 187.092 69.8522 187.092 67.9473V30.2441C187.092 28.3392 186.919 26.9538 186.573 26.0879C186.251 25.222 185.682 24.6283 184.866 24.3066C184.074 23.985 182.763 23.7871 180.932 23.7129V22.1914C185.905 22.3398 193.253 22.4141 202.975 22.4141C210.422 22.4141 215.716 22.3398 218.858 22.1914C218.512 25.5065 218.339 28.5 218.339 31.1719C218.339 33.151 218.413 34.722 218.561 35.8848H216.817C216.644 34.2272 216.458 32.8913 216.26 31.877C216.087 30.8379 215.84 29.8236 215.518 28.834C215.197 27.8444 214.813 27.0775 214.368 26.5332C213.923 25.9889 213.341 25.5065 212.624 25.0859C211.906 24.6406 211.065 24.3438 210.1 24.1953C209.135 24.0221 207.973 23.9355 206.612 23.9355H200.303C197.681 23.9355 195.999 24.3066 195.257 25.0488C194.514 25.791 194.143 27.5228 194.143 30.2441V48.168H199.19C200.105 48.168 200.91 48.0566 201.602 47.834C202.32 47.6113 202.913 47.265 203.383 46.7949C203.854 46.3249 204.237 45.8672 204.534 45.4219C204.855 44.9518 205.115 44.3457 205.313 43.6035C205.511 42.8366 205.647 42.2181 205.721 41.748C205.82 41.278 205.919 40.6348 206.018 39.8184C206.117 39.002 206.191 38.4453 206.241 38.1484H207.985C207.812 40.6719 207.725 43.0592 207.725 45.3105C207.725 45.8053 207.725 46.4486 207.725 47.2402C207.75 48.0319 207.762 48.6009 207.762 48.9473C207.762 51.5202 207.911 55.1198 208.208 59.7461H206.464C206.117 56.901 205.833 55.0951 205.61 54.3281C204.917 51.8789 203.482 50.4069 201.305 49.9121C200.687 49.7637 199.982 49.6895 199.19 49.6895H194.143V67.9473C194.143 70.6686 194.514 72.4004 195.257 73.1426C195.999 73.8848 197.681 74.2559 200.303 74.2559H205.87C208.27 74.2559 210.199 74.0456 211.659 73.625C213.143 73.1797 214.343 72.388 215.258 71.25C216.174 70.112 216.842 68.7637 217.262 67.2051C217.683 65.6217 218.042 63.4818 218.339 60.7852H220.083C219.934 62.1458 219.86 63.9766 219.86 66.2773C219.86 69.1471 220.033 72.388 220.38 76C216.941 75.8516 211.139 75.7773 202.975 75.7773C193.253 75.7773 185.905 75.8516 180.932 76ZM229.905 76V74.4785C231.736 74.4043 233.047 74.2064 233.838 73.8848C234.655 73.5632 235.224 72.9694 235.545 72.1035C235.892 71.2376 236.065 69.8522 236.065 67.9473V30.2441C236.065 28.3392 235.892 26.9538 235.545 26.0879C235.224 25.222 234.655 24.6283 233.838 24.3066C233.047 23.985 231.736 23.7871 229.905 23.7129V22.1914C232.008 22.3398 235.1 22.4141 239.182 22.4141C241.013 22.4141 243.289 22.3893 246.01 22.3398C248.732 22.2904 250.278 22.2656 250.649 22.2656C256.611 22.2656 261.151 23.6263 264.268 26.3477C267.41 29.069 268.981 32.7057 268.981 37.2578C268.981 38.8411 268.795 40.375 268.424 41.8594C268.053 43.3438 267.385 44.8529 266.42 46.3867C265.48 47.9206 264.28 49.2565 262.821 50.3945C261.386 51.5326 259.469 52.4603 257.069 53.1777C254.694 53.8952 251.997 54.2539 248.979 54.2539H243.116V67.9473C243.116 69.3822 243.202 70.4954 243.376 71.2871C243.573 72.0788 243.982 72.722 244.6 73.2168C245.219 73.6868 245.973 74.0085 246.864 74.1816C247.779 74.3301 249.09 74.429 250.797 74.4785V76C248.15 75.8516 244.427 75.7773 239.627 75.7773C235.273 75.7773 232.032 75.8516 229.905 76ZM243.116 52.7324H248.237C250.315 52.7324 252.133 52.4727 253.692 51.9531C255.275 51.4089 256.549 50.7038 257.514 49.8379C258.479 48.9473 259.258 47.8587 259.852 46.5723C260.446 45.2611 260.842 43.9375 261.04 42.6016C261.262 41.2409 261.374 39.7318 261.374 38.0742C261.374 33.1758 260.396 29.5638 258.442 27.2383C256.487 24.888 253.259 23.7129 248.756 23.7129C246.456 23.7129 244.934 24.1458 244.192 25.0117C243.474 25.8529 243.116 27.597 243.116 30.2441V52.7324Z" fill="#F7F7F7"/>
<path d="M137.583 106.832L135.864 108.434L133.53 109.166H130.532L128.188 108.434L126.323 106.705L127.241 105.797L128.882 107.359L130.737 107.936H133.335L135.19 107.359L136.284 106.324V104.752L135.698 103.658L135.142 103.141L133.892 102.525L129.692 101.217L128.149 100.504L127.29 99.7031L126.489 98.1602V96.4414L128.188 94.8398L130.532 94.1074H133.53L135.864 94.8398L137.749 96.5781L136.802 97.4766L135.19 95.9141L133.335 95.3379H130.737L128.872 95.9141L127.778 96.9492V97.8672L128.364 98.9609L128.921 99.4688L130.181 100.084L134.37 101.393L135.923 102.105L136.772 102.916L137.583 104.449V106.832ZM161.74 109.166H151.506V94.1074H161.74V95.3379H152.795V100.689H158.244V101.93H152.795V107.936H161.74V109.166ZM186.346 94.5176L180.487 109.02H179.491L173.622 94.5176L174.794 94.0488L179.989 106.852L185.174 94.0488L186.346 94.5176ZM209.703 109.166H199.468V94.1074H209.703V95.3379H200.757V100.689H206.206V101.93H200.757V107.936H209.703V109.166ZM234.895 109.02H233.801L225.09 96.7344V109.02H223.801V94.2539H224.895L233.596 106.539V94.2539H234.895V109.02Z" fill="#767B91"/>
<defs>
<linearGradient id="paint0_linear_202_2789" x1="64.5" y1="64.7501" x2="2" y2="64.7501" gradientUnits="userSpaceOnUse">
<stop stop-color="#2A324B"/>
<stop offset="1" stop-color="#F7F7F7"/>
</linearGradient>
<linearGradient id="paint1_linear_202_2789" x1="68.5" y1="60.1748" x2="68.5" y2="70.1748" gradientUnits="userSpaceOnUse">
<stop stop-color="#2A324B"/>
<stop offset="1" stop-color="#F7F7F7"/>
</linearGradient>
</defs>
</svg>
