<svg width="347" height="146" viewBox="0 0 347 146" fill="none" xmlns="http://www.w3.org/2000/svg">
<path d="M83.5669 62.068C51.5926 18.0518 1.99985 50.3205 1.99985 84.2542C1.99985 118.188 47.6774 151.169 83.5669 107.093" stroke="url(#paint0_linear_202_2801)" stroke-width="3" stroke-linecap="round"/>
<circle cx="88.7867" cy="85.0579" r="6.52536" transform="rotate(90 88.7867 85.0579)" fill="url(#paint1_linear_202_2801)"/>
<path d="M115.358 96.6562C115.608 93.1562 115.733 85.4844 115.733 73.6406H117.937C118.155 76.7031 118.608 79.4844 119.296 81.9844C120.015 84.4844 121.03 86.7812 122.343 88.875C123.655 90.9375 125.421 92.5469 127.64 93.7031C129.858 94.8594 132.452 95.4375 135.421 95.4375C138.858 95.4375 141.796 94.3594 144.233 92.2031C146.671 90.0469 147.89 86.8594 147.89 82.6406C147.89 80.7656 147.546 79.0312 146.858 77.4375C146.202 75.8438 145.14 74.3281 143.671 72.8906C142.202 71.4531 140.671 70.1875 139.077 69.0938C137.515 67.9688 135.468 66.6406 132.937 65.1094C131.093 63.9844 129.593 63.0625 128.437 62.3438C127.312 61.5938 125.999 60.6562 124.499 59.5312C122.999 58.4062 121.796 57.3438 120.89 56.3438C120.015 55.3125 119.14 54.1406 118.265 52.8281C117.421 51.4844 116.796 50.0469 116.39 48.5156C116.015 46.9844 115.827 45.3438 115.827 43.5938C115.827 40.8438 116.312 38.3906 117.28 36.2344C118.28 34.0781 119.624 32.3438 121.312 31.0312C122.999 29.6875 124.905 28.6719 127.03 27.9844C129.187 27.2969 131.468 26.9531 133.874 26.9531C135.843 26.9531 137.624 27.1562 139.218 27.5625C140.812 27.9688 141.983 28.375 142.733 28.7812C143.515 29.1875 144.468 29.7656 145.593 30.5156C147.03 31.4219 148.124 31.875 148.874 31.875C149.468 31.875 149.921 31.5469 150.233 30.8906C150.546 30.2031 150.796 29.125 150.983 27.6562H153.187C152.874 31.4062 152.718 37.9375 152.718 47.25H150.515C150.327 44.8438 149.89 42.5938 149.202 40.5C148.546 38.375 147.608 36.4219 146.39 34.6406C145.171 32.8281 143.562 31.4062 141.562 30.375C139.593 29.3125 137.327 28.7812 134.765 28.7812C131.327 28.7812 128.515 29.8281 126.327 31.9219C124.14 33.9844 123.046 36.6562 123.046 39.9375C123.046 40.875 123.124 41.7812 123.28 42.6562C123.437 43.5 123.702 44.3125 124.077 45.0938C124.483 45.8438 124.874 46.5312 125.249 47.1562C125.655 47.7812 126.218 48.4375 126.937 49.125C127.687 49.7812 128.327 50.3438 128.858 50.8125C129.39 51.2812 130.155 51.8594 131.155 52.5469C132.187 53.2031 132.999 53.7344 133.593 54.1406C134.218 54.5156 135.14 55.0781 136.358 55.8281C137.577 56.5469 138.515 57.1094 139.171 57.5156C140.858 58.5781 142.233 59.4688 143.296 60.1875C144.39 60.875 145.608 61.7188 146.952 62.7188C148.296 63.6875 149.374 64.5781 150.187 65.3906C151.03 66.2031 151.89 67.1562 152.765 68.25C153.64 69.3125 154.312 70.375 154.78 71.4375C155.28 72.5 155.687 73.6875 155.999 75C156.312 76.3125 156.468 77.6875 156.468 79.125C156.468 83.0625 155.53 86.4375 153.655 89.25C151.78 92.0312 149.327 94.0781 146.296 95.3906C143.296 96.7031 139.89 97.3594 136.077 97.3594C133.015 97.3594 130.499 97.0312 128.53 96.375C126.562 95.75 124.702 94.8906 122.952 93.7969C121.515 92.8906 120.421 92.4375 119.671 92.4375C119.077 92.4375 118.624 92.7812 118.312 93.4688C117.999 94.125 117.749 95.1875 117.562 96.6562H115.358ZM167.281 28.0312C172.593 28.2188 181.625 28.3125 194.375 28.3125C207.031 28.3125 216.015 28.2188 221.328 28.0312C220.89 32.5938 220.672 36.6875 220.672 40.3125C220.672 43.5625 220.765 46.1875 220.953 48.1875H218.75C218.5 45.6875 218.25 43.6875 218 42.1875C217.781 40.6875 217.437 39.1719 216.968 37.6406C216.531 36.1094 215.984 34.9531 215.328 34.1719C214.703 33.3594 213.875 32.625 212.843 31.9688C211.812 31.2812 210.578 30.8281 209.14 30.6094C207.734 30.3594 206.015 30.2344 203.984 30.2344H198.781V84.8438C198.781 86.4688 198.859 87.7812 199.015 88.7812C199.203 89.7812 199.484 90.6406 199.859 91.3594C200.234 92.0781 200.812 92.625 201.593 93C202.406 93.3438 203.328 93.5938 204.359 93.75C205.39 93.9062 206.765 94.0156 208.484 94.0781V96C205.109 95.8125 200.406 95.7188 194.375 95.7188C187.968 95.7188 183.234 95.8125 180.172 96V94.0781C181.89 94.0156 183.265 93.9062 184.297 93.75C185.328 93.5938 186.234 93.3438 187.015 93C187.828 92.625 188.422 92.0781 188.797 91.3594C189.172 90.6406 189.437 89.7812 189.593 88.7812C189.781 87.7812 189.875 86.4688 189.875 84.8438V30.2344H184.672C182.64 30.2344 180.906 30.3594 179.468 30.6094C178.062 30.8281 176.828 31.2812 175.765 31.9688C174.734 32.625 173.906 33.3594 173.281 34.1719C172.656 34.9531 172.109 36.1094 171.64 37.6406C171.203 39.1406 170.859 40.6562 170.609 42.1875C170.39 43.6875 170.156 45.6875 169.906 48.1875H167.703C167.89 46.1875 167.984 43.5625 167.984 40.3125C167.984 36.5625 167.75 32.4688 167.281 28.0312ZM231.532 96V94.0781C233.844 93.9844 235.5 93.7344 236.5 93.3281C237.532 92.9219 238.25 92.1719 238.657 91.0781C239.094 89.9844 239.313 88.2344 239.313 85.8281V38.2031C239.313 35.7969 239.094 34.0469 238.657 32.9531C238.25 31.8594 237.532 31.1094 236.5 30.7031C235.5 30.2969 233.844 30.0469 231.532 29.9531V28.0312C237.813 28.2188 247.094 28.3125 259.375 28.3125C268.782 28.3125 275.469 28.2188 279.438 28.0312C279 32.2188 278.782 36 278.782 39.375C278.782 41.875 278.875 43.8594 279.063 45.3281H276.86C276.641 43.2344 276.407 41.5469 276.157 40.2656C275.938 38.9531 275.625 37.6719 275.219 36.4219C274.813 35.1719 274.328 34.2031 273.766 33.5156C273.203 32.8281 272.469 32.2188 271.563 31.6875C270.657 31.125 269.594 30.75 268.375 30.5625C267.157 30.3437 265.688 30.2344 263.969 30.2344H256C252.688 30.2344 250.563 30.7031 249.625 31.6406C248.688 32.5781 248.219 34.7656 248.219 38.2031V60.8438H254.594C255.75 60.8438 256.766 60.7031 257.641 60.4219C258.547 60.1406 259.297 59.7031 259.891 59.1094C260.485 58.5156 260.969 57.9375 261.344 57.375C261.75 56.7812 262.078 56.0156 262.328 55.0781C262.578 54.1094 262.75 53.3281 262.844 52.7344C262.969 52.1406 263.094 51.3281 263.219 50.2969C263.344 49.2656 263.438 48.5625 263.5 48.1875H265.703C265.485 51.375 265.375 54.3906 265.375 57.2344C265.375 57.8594 265.375 58.6719 265.375 59.6719C265.407 60.6719 265.422 61.3906 265.422 61.8281C265.422 65.0781 265.61 69.625 265.985 75.4688H263.782C263.344 71.875 262.985 69.5938 262.703 68.625C261.828 65.5312 260.016 63.6719 257.266 63.0469C256.485 62.8594 255.594 62.7656 254.594 62.7656H248.219V85.8281C248.219 89.2656 248.688 91.4531 249.625 92.3906C250.563 93.3281 252.688 93.7969 256 93.7969H263.032C266.063 93.7969 268.5 93.5312 270.344 93C272.219 92.4375 273.735 91.4375 274.891 90C276.047 88.5625 276.891 86.8594 277.422 84.8906C277.953 82.8906 278.407 80.1875 278.782 76.7812H280.985C280.797 78.5 280.703 80.8125 280.703 83.7188C280.703 87.3438 280.922 91.4375 281.36 96C277.016 95.8125 269.688 95.7188 259.375 95.7188C247.094 95.7188 237.813 95.8125 231.532 96ZM293.392 96V94.0781C295.704 93.9844 297.36 93.7344 298.36 93.3281C299.392 92.9219 300.11 92.1719 300.517 91.0781C300.954 89.9844 301.173 88.2344 301.173 85.8281V38.2031C301.173 35.7969 300.954 34.0469 300.517 32.9531C300.11 31.8594 299.392 31.1094 298.36 30.7031C297.36 30.2969 295.704 30.0469 293.392 29.9531V28.0312C296.048 28.2188 299.954 28.3125 305.11 28.3125C307.423 28.3125 310.298 28.2812 313.735 28.2188C317.173 28.1563 319.126 28.125 319.595 28.125C327.126 28.125 332.86 29.8438 336.798 33.2812C340.767 36.7188 342.751 41.3125 342.751 47.0625C342.751 49.0625 342.517 51 342.048 52.875C341.579 54.75 340.735 56.6562 339.517 58.5938C338.329 60.5312 336.813 62.2188 334.97 63.6562C333.157 65.0938 330.735 66.2656 327.704 67.1719C324.704 68.0781 321.298 68.5312 317.485 68.5312H310.079V85.8281C310.079 87.6406 310.188 89.0469 310.407 90.0469C310.657 91.0469 311.173 91.8594 311.954 92.4844C312.735 93.0781 313.688 93.4844 314.813 93.7031C315.97 93.8906 317.626 94.0156 319.782 94.0781V96C316.438 95.8125 311.735 95.7188 305.673 95.7188C300.173 95.7188 296.079 95.8125 293.392 96ZM310.079 66.6094H316.548C319.173 66.6094 321.47 66.2812 323.438 65.625C325.438 64.9375 327.048 64.0469 328.267 62.9531C329.485 61.8281 330.47 60.4531 331.22 58.8281C331.97 57.1719 332.47 55.5 332.72 53.8125C333.001 52.0938 333.142 50.1875 333.142 48.0938C333.142 41.9062 331.907 37.3438 329.438 34.4062C326.97 31.4375 322.892 29.9531 317.204 29.9531C314.298 29.9531 312.376 30.5 311.438 31.5938C310.532 32.6562 310.079 34.8594 310.079 38.2031V66.6094Z" fill="#2A324B"/>
<path d="M174.604 133.33L172.542 135.252L169.741 136.13H166.144L163.331 135.252L161.093 133.177L162.194 132.087L164.163 133.962L166.39 134.654H169.507L171.733 133.962L173.046 132.72V130.834L172.343 129.521L171.675 128.9L170.175 128.162L165.136 126.591L163.284 125.736L162.253 124.775L161.292 122.923V120.861L163.331 118.939L166.144 118.06H169.741L172.542 118.939L174.804 121.025L173.667 122.103L171.733 120.228L169.507 119.537H166.39L164.151 120.228L162.839 121.47V122.572L163.542 123.884L164.21 124.494L165.722 125.232L170.749 126.802L172.612 127.658L173.632 128.63L174.604 130.47V133.33ZM203.593 136.13H191.312V118.06H203.593V119.537H192.859V125.959H199.398V127.447H192.859V134.654H203.593V136.13ZM233.12 118.552L226.089 135.955H224.894L217.851 118.552L219.257 117.99L225.492 133.353L231.714 117.99L233.12 118.552ZM261.148 136.13H248.867V118.06H261.148V119.537H250.414V125.959H256.953V127.447H250.414V134.654H261.148V136.13ZM291.379 135.955H290.066L279.613 121.212V135.955H278.066V118.236H279.379L289.82 132.978V118.236H291.379V135.955Z" fill="#767B91"/>
<defs>
<linearGradient id="paint0_linear_202_2801" x1="2" y1="85" x2="90" y2="85" gradientUnits="userSpaceOnUse">
<stop stop-color="#E1E5EE"/>
<stop offset="1" stop-color="#2A324B"/>
</linearGradient>
<linearGradient id="paint1_linear_202_2801" x1="88.7582" y1="79.8153" x2="88.9089" y2="91.5817" gradientUnits="userSpaceOnUse">
<stop stop-color="#2A324B"/>
<stop offset="1" stop-color="#E1E5EE"/>
</linearGradient>
</defs>
</svg>
