<svg width="20" height="19" viewBox="0 0 20 19" fill="none" xmlns="http://www.w3.org/2000/svg">
<path d="M18.091 6.70201C16.2819 6.70201 15.5422 5.41372 16.4418 3.83356C16.9615 2.91767 16.6517 1.75016 15.7421 1.22679L14.013 0.230383C13.2234 -0.242659 12.2039 0.0391532 11.7341 0.834267L11.6242 1.0255C10.7246 2.60566 9.24538 2.60566 8.33583 1.0255L8.22589 0.834267C7.77611 0.0391532 6.75662 -0.242659 5.96702 0.230383L4.23788 1.22679C3.32834 1.75016 3.01849 2.92773 3.53823 3.84362C4.44778 5.41372 3.70815 6.70201 1.89905 6.70201C0.85957 6.70201 0 7.55751 0 8.6143V10.3857C0 11.4324 0.849575 12.298 1.89905 12.298C3.70815 12.298 4.44778 13.5863 3.53823 15.1664C3.01849 16.0823 3.32834 17.2498 4.23788 17.7732L5.96702 18.7696C6.75662 19.2427 7.77611 18.9608 8.24588 18.1657L8.35582 17.9745C9.25537 16.3943 10.7346 16.3943 11.6442 17.9745L11.7541 18.1657C12.2239 18.9608 13.2434 19.2427 14.033 18.7696L15.7621 17.7732C16.6717 17.2498 16.9815 16.0723 16.4618 15.1664C15.5522 13.5863 16.2919 12.298 18.1009 12.298C19.1404 12.298 20 11.4425 20 10.3857V8.6143C19.99 7.56757 19.1404 6.70201 18.091 6.70201ZM9.995 12.771C8.2059 12.771 6.74663 11.3016 6.74663 9.5C6.74663 7.69841 8.2059 6.22896 9.995 6.22896C11.7841 6.22896 13.2434 7.69841 13.2434 9.5C13.2434 11.3016 11.7841 12.771 9.995 12.771Z" fill="#F7F7F7"/>
</svg>
