<svg width="25" height="20" viewBox="0 0 25 20" fill="none" xmlns="http://www.w3.org/2000/svg">
<path fill-rule="evenodd" clip-rule="evenodd" d="M18.6715 19.7792C18.9935 20.0072 19.4085 20.0642 19.7785 19.9242C20.1485 19.7832 20.4205 19.4672 20.5025 19.0842C21.3715 15.0002 23.4795 4.66315 24.2705 0.948149C24.3305 0.668149 24.2305 0.377149 24.0105 0.190149C23.7905 0.00314829 23.4855 -0.0508519 23.2135 0.0501482C19.0205 1.60215 6.10751 6.44716 0.829508 8.40016C0.494507 8.52416 0.276507 8.84616 0.287507 9.19916C0.299507 9.55316 0.537508 9.86016 0.880508 9.96316C3.24751 10.6712 6.35451 11.6562 6.35451 11.6562C6.35451 11.6562 7.80652 16.0412 8.56352 18.2712C8.65852 18.5512 8.87752 18.7712 9.16652 18.8472C9.45452 18.9222 9.76252 18.8432 9.97752 18.6402C11.1935 17.4922 13.0735 15.7172 13.0735 15.7172C13.0735 15.7172 16.6455 18.3362 18.6715 19.7792V19.7792ZM7.66152 11.1022L9.34052 16.6402L9.71352 13.1332C9.71352 13.1332 16.2005 7.28216 19.8985 3.94715C20.0065 3.84915 20.0215 3.68515 19.9315 3.57015C19.8425 3.45515 19.6785 3.42815 19.5555 3.50615C15.2695 6.24316 7.66152 11.1022 7.66152 11.1022Z" fill="#767B91"/>
</svg>
