<svg width="24" height="24" viewBox="0 0 24 24" fill="none" xmlns="http://www.w3.org/2000/svg">
<path d="M12.25 2.25C6.7274 2.25 2.25 6.7274 2.25 12.25C2.25 17.7639 6.73654 22.25 12.25 22.25C17.7721 22.25 22.25 17.7721 22.25 12.25C22.25 6.73606 17.7639 2.25 12.25 2.25ZM17.4423 13.7885H11.6731C11.6221 13.7885 11.5732 13.7682 11.5371 13.7321C11.501 13.6961 11.4808 13.6472 11.4808 13.5962V5.51923C11.4808 5.46823 11.501 5.41931 11.5371 5.38325C11.5732 5.34718 11.6221 5.32692 11.6731 5.32692H12.8269C12.8779 5.32692 12.9268 5.34718 12.9629 5.38325C12.999 5.41931 13.0192 5.46823 13.0192 5.51923V12.25H17.4423C17.4933 12.25 17.5422 12.2703 17.5783 12.3063C17.6144 12.3424 17.6346 12.3913 17.6346 12.4423V13.5962C17.6346 13.6472 17.6144 13.6961 17.5783 13.7321C17.5422 13.7682 17.4933 13.7885 17.4423 13.7885Z" fill="#2A324B"/>
</svg>
