<svg width="14" height="14" viewBox="0 0 14 14" fill="none" xmlns="http://www.w3.org/2000/svg">
<path d="M7.00002 0C3.13599 0 0 3.13599 0 6.99998C0 10.864 3.13599 14 7.00002 14C10.864 14 14 10.864 14 6.99998C14 3.13599 10.871 0 7.00002 0ZM9.10001 8.56098L7.06995 9.72998C6.81795 9.87698 6.53802 9.94697 6.26495 9.94697C5.98502 9.94697 5.71195 9.87698 5.45999 9.72998C4.95599 9.43598 4.65499 8.91798 4.65499 8.32998V5.98499C4.65499 5.40399 4.95599 4.87899 5.45999 4.58499C5.96402 4.29099 6.56595 4.29099 7.07695 4.58499L9.10694 5.75399C9.61094 6.04799 9.91194 6.56598 9.91194 7.15398C9.91194 7.74198 9.61094 8.26698 9.10001 8.56098Z" fill="#1B1B1B"/>
</svg>
