<svg width="35" height="20" viewBox="0 0 35 20" fill="none" xmlns="http://www.w3.org/2000/svg">
<path fill-rule="evenodd" clip-rule="evenodd" d="M0.42983 0.164645C-0.46506 0.60763 0.0446485 2.88418 1.89109 6.6918C6.08436 15.3386 11.2087 19.8307 17.0514 19.9817C19.9416 20.0564 19.9752 20.0215 20.0181 16.9023C20.0523 14.4206 20.0735 14.2832 20.4448 14.128C21.5386 13.671 23.3674 14.8839 26.2623 17.9862C28.2746 20.1427 27.9634 20.0159 31.1773 19.9893C33.8735 19.9669 33.9128 19.96 34.1722 19.4641C34.6906 18.4727 33.5162 16.7245 29.6025 12.662C27.7613 10.7508 27.7693 10.7945 28.9547 9.13942C31.6229 5.41408 33.5333 2.00686 33.5649 0.916969C33.5897 0.0621803 33.4468 0.0195314 30.5568 0.0195314C27.3859 0.0195314 27.4513 -0.00916937 26.6516 1.73374C24.7046 5.9769 21.8559 9.75086 20.6665 9.66315C20.0224 9.61567 20.002 9.46257 20.002 4.66873C20.002 0.420069 20.0051 0.458225 19.6322 0.164913C19.4482 0.0201349 19.4329 0.0195314 16.08 0.0195314H12.7125L12.487 0.171485C11.956 0.529307 11.9894 1.04988 12.5917 1.80441C12.974 2.28341 13.1863 2.6759 13.4036 3.30537C13.5689 3.78437 13.6024 10.546 13.4413 10.9275C13.1494 11.619 12.2939 11.2496 11.2234 9.9698C9.61651 8.04879 8.11702 5.20285 6.63357 1.25876C6.41925 0.688905 6.12265 0.312575 5.75692 0.146472C5.30421 -0.0591276 0.851222 -0.0439055 0.42983 0.164645Z" fill="#F7F7F7"/>
</svg>
