<svg width="21" height="20" viewBox="0 0 21 20" fill="none" xmlns="http://www.w3.org/2000/svg">
<path fill-rule="evenodd" clip-rule="evenodd" d="M12.0243 0.065203C11.392 0.275991 10.8984 0.70766 10.6287 1.2857C10.4874 1.58836 10.4672 1.70041 10.4672 2.1796C10.4672 2.65331 10.4881 2.77212 10.6218 3.05724C11.0478 3.96614 12.0223 4.49239 12.9598 4.31966C13.9169 4.14325 14.5902 3.4655 14.7683 2.49922C14.9368 1.58484 14.4046 0.6091 13.5051 0.183602C13.1167 -0.000138664 12.3937 -0.057925 12.0243 0.065203ZM5.29029 5.24125C4.95419 5.32043 4.66462 5.49166 4.40475 5.76485C4.06046 6.12685 1.90661 9.01981 1.81093 9.24876C1.69824 9.51855 1.70937 9.67738 1.86122 9.96446C2.0971 10.4105 2.65772 10.5653 3.06234 10.2962C3.1733 10.2224 3.75855 9.49825 4.41173 8.62649C5.26054 7.49366 5.59676 7.08638 5.68488 7.08436C5.85812 7.08044 7.57534 7.43033 7.62817 7.48039C7.65268 7.50358 7.33572 8.5198 6.92383 9.73868C6.51194 10.9576 6.15196 12.1041 6.12387 12.2865C6.01378 13.0013 6.26298 13.6929 6.81466 14.2036C7.21063 14.5703 7.64956 14.7541 8.15574 14.7655C8.3486 14.7698 9.33685 14.6522 10.3519 14.5042C11.3669 14.3561 12.3415 14.2186 12.5177 14.1985C12.7991 14.1664 13.1954 14.2471 15.7761 14.8616C17.3921 15.2463 18.821 15.5912 18.9516 15.6278C19.164 15.6874 19.2181 15.6797 19.4676 15.5548C19.8114 15.3825 19.9582 15.188 19.9957 14.8546C20.0296 14.5538 19.9276 14.3179 19.67 14.1011C19.5487 13.9991 18.6901 13.6878 16.7988 13.0603C14.1906 12.1949 14.0495 12.155 12.5722 11.8684C11.7316 11.7053 11.0215 11.55 10.9942 11.5233C10.9258 11.4566 11.8126 8.81179 11.9033 8.81179C11.9425 8.81179 12.5308 9.16647 13.2106 9.59998C14.2929 10.2902 14.4824 10.3913 14.7349 10.4132C15.0116 10.4372 15.0979 10.401 16.8715 9.51613C18.8375 8.53526 19.043 8.39511 19.1206 7.98132C19.2264 7.41776 18.8415 6.96631 18.2552 6.96631C18.0335 6.96631 17.7572 7.08402 16.4892 7.71834L14.986 8.47038L13.6755 7.18488C12.0829 5.62274 11.7211 5.3871 10.6847 5.23727C10.202 5.16743 5.58909 5.17083 5.29029 5.24125ZM4.84426 16.054C4.60637 16.5152 4.36704 16.9333 4.31242 16.9831C4.25786 17.0329 3.37746 17.3541 2.35598 17.6968C1.33451 18.0396 0.431957 18.369 0.350237 18.4288C0.153175 18.5732 5.77204e-05 18.8843 4.92549e-08 19.1408C-0.000172964 19.5164 0.455487 20 0.809531 20C1.10965 20 5.27738 19.1295 5.50777 19.0187C5.63482 18.9576 5.87237 18.7706 6.03569 18.6031C6.4462 18.1823 7.78411 16.5815 7.7844 16.5109C7.78457 16.4792 7.59962 16.4086 7.37349 16.354C7.14731 16.2995 6.79666 16.1773 6.59418 16.0826C6.24187 15.9177 5.64486 15.5001 5.48338 15.3055C5.44128 15.2548 5.37761 15.2138 5.34185 15.2144C5.30604 15.215 5.08216 15.5928 4.84426 16.054Z" fill="#767B91"/>
</svg>
