<svg width="21" height="21" viewBox="0 0 21 21" fill="none" xmlns="http://www.w3.org/2000/svg">
<path fill-rule="evenodd" clip-rule="evenodd" d="M12.0243 0.565203C11.392 0.775991 10.8984 1.20766 10.6287 1.7857C10.4874 2.08836 10.4672 2.20041 10.4672 2.6796C10.4672 3.15331 10.4881 3.27212 10.6218 3.55724C11.0478 4.46614 12.0223 4.99239 12.9598 4.81966C13.9169 4.64325 14.5902 3.9655 14.7683 2.99922C14.9368 2.08484 14.4046 1.1091 13.5051 0.683602C13.1167 0.499861 12.3937 0.442075 12.0243 0.565203ZM5.29029 5.74125C4.95419 5.82043 4.66462 5.99166 4.40475 6.26485C4.06046 6.62685 1.90661 9.51981 1.81093 9.74876C1.69824 10.0185 1.70937 10.1774 1.86122 10.4645C2.0971 10.9105 2.65772 11.0653 3.06234 10.7962C3.1733 10.7224 3.75855 9.99825 4.41173 9.12649C5.26054 7.99366 5.59676 7.58638 5.68488 7.58436C5.85812 7.58044 7.57534 7.93033 7.62817 7.98039C7.65268 8.00358 7.33572 9.0198 6.92383 10.2387C6.51194 11.4576 6.15196 12.6041 6.12387 12.7865C6.01378 13.5013 6.26298 14.1929 6.81466 14.7036C7.21063 15.0703 7.64956 15.2541 8.15574 15.2655C8.3486 15.2698 9.33685 15.1522 10.3519 15.0042C11.3669 14.8561 12.3415 14.7186 12.5177 14.6985C12.7991 14.6664 13.1954 14.7471 15.7761 15.3616C17.3921 15.7463 18.821 16.0912 18.9516 16.1278C19.164 16.1874 19.2181 16.1797 19.4676 16.0548C19.8114 15.8825 19.9582 15.688 19.9957 15.3546C20.0296 15.0538 19.9276 14.8179 19.67 14.6011C19.5487 14.4991 18.6901 14.1878 16.7988 13.5603C14.1906 12.6949 14.0495 12.655 12.5722 12.3684C11.7316 12.2053 11.0215 12.05 10.9942 12.0233C10.9258 11.9566 11.8126 9.31179 11.9033 9.31179C11.9425 9.31179 12.5308 9.66647 13.2106 10.1C14.2929 10.7902 14.4824 10.8913 14.7349 10.9132C15.0116 10.9372 15.0979 10.901 16.8715 10.0161C18.8375 9.03526 19.043 8.89511 19.1206 8.48132C19.2264 7.91776 18.8415 7.46631 18.2552 7.46631C18.0335 7.46631 17.7572 7.58402 16.4892 8.21834L14.986 8.97038L13.6755 7.68488C12.0829 6.12274 11.7211 5.8871 10.6847 5.73727C10.202 5.66743 5.58909 5.67083 5.29029 5.74125ZM4.84426 16.554C4.60637 17.0152 4.36704 17.4333 4.31242 17.4831C4.25786 17.5329 3.37746 17.8541 2.35598 18.1968C1.33451 18.5396 0.431957 18.869 0.350237 18.9288C0.153175 19.0732 5.77204e-05 19.3843 4.92549e-08 19.6408C-0.000172964 20.0164 0.455487 20.5 0.809531 20.5C1.10965 20.5 5.27738 19.6295 5.50777 19.5187C5.63482 19.4576 5.87237 19.2706 6.03569 19.1031C6.4462 18.6823 7.78411 17.0815 7.7844 17.0109C7.78457 16.9792 7.59962 16.9086 7.37349 16.854C7.14731 16.7995 6.79666 16.6773 6.59418 16.5826C6.24187 16.4177 5.64486 16.0001 5.48338 15.8055C5.44128 15.7548 5.37761 15.7138 5.34185 15.7144C5.30604 15.715 5.08216 16.0928 4.84426 16.554Z" fill="#F7F7F7"/>
</svg>
