<svg width="60" height="60" viewBox="0 0 60 60" fill="none" xmlns="http://www.w3.org/2000/svg">
<path fill-rule="evenodd" clip-rule="evenodd" d="M22.5599 3.31068C17.8971 7.36481 16.7115 8.72443 15.2408 11.7035C13.0618 16.1174 12.7876 21.2052 14.4818 25.7814C15.0213 27.2384 16.0541 29.0915 17.4332 31.0769L18.5475 32.681V35.1322C18.5475 36.4803 18.4845 38.2502 18.4075 39.0652C18.1671 41.609 17.2865 44.0392 15.8536 46.1136L15.206 47.0511L10.5688 47.1112C6.20286 47.1679 5.88425 47.1867 5.12252 47.4322C3.88575 47.8307 2.91616 48.3834 2.0295 49.1951C-0.149852 51.1907 -0.615756 54.0452 0.834737 56.5152C1.41875 57.5096 2.92953 58.7911 4.09647 59.2819C5.91235 60.0456 4.1753 59.9974 29.9845 59.999C55.9014 60.0005 54.1856 60.0484 55.9753 59.2725C57.0773 58.7947 58.6118 57.4719 59.1736 56.5152C60.2755 54.6388 60.2755 52.4712 59.1736 50.5948C58.6062 49.6286 57.078 48.3155 55.9535 47.828C54.4593 47.1802 53.8352 47.1133 49.2708 47.1114L45.1467 47.1097L44.7791 46.6116C43.5826 44.99 42.7648 43.3587 42.1801 41.426C41.8409 40.3051 41.8231 40.087 41.7682 36.412L41.7109 32.57L43.0163 30.6112C43.7343 29.534 44.5362 28.2154 44.7984 27.6811C47.8537 21.4547 47.2264 14.6149 43.072 8.85966C41.9453 7.29872 41.1587 6.52457 37.3146 3.19338L33.6295 0H29.9986H26.3676L22.5599 3.31068ZM27.9583 7.03821C27.9583 8.77306 27.9054 10.0782 27.8349 10.0782C27.6685 10.0782 24.685 6.83195 24.685 6.65078C24.685 6.45601 27.7064 3.8644 27.8466 3.93893C27.908 3.97151 27.9583 5.36616 27.9583 7.03821ZM35.3083 6.9011C34.5237 7.84376 32.3581 10.0679 32.2205 10.0724C32.0883 10.0769 32.05 9.39767 32.05 7.05086C32.05 5.38574 32.0945 3.98534 32.1486 3.9387C32.2029 3.89205 32.9787 4.48831 33.8727 5.26363C35.3742 6.56594 35.4834 6.69063 35.3083 6.9011ZM23.2919 10.9668C24.0639 11.7993 24.7302 12.5462 24.7727 12.6264C24.8153 12.7067 24.5354 13.0681 24.1508 13.4298C23.2885 14.2404 22.4354 15.7265 22.2236 16.7872C22.1239 17.2865 22.0871 18.4535 22.1236 19.9513C22.1772 22.1432 22.2083 22.3847 22.5295 23.1144C23.4911 25.2987 25.2218 26.7297 27.7537 27.4336C28.9677 27.7713 30.9034 27.7963 32.1182 27.4902C34.6691 26.8476 36.685 25.139 37.5912 22.8517C37.8121 22.2939 37.8465 21.8368 37.8465 19.4532C37.8465 16.8872 37.8252 16.6463 37.5342 15.9229C37.1554 14.9813 36.459 13.9645 35.7232 13.2786C35.3622 12.9421 35.213 12.7153 35.2839 12.6111C35.5709 12.19 38.2738 9.38806 38.3989 9.38197C38.4776 9.37822 38.8668 9.79811 39.2639 10.3151C40.6918 12.175 41.6954 14.2317 42.236 16.4063C42.5916 17.8365 42.5882 21.5625 42.23 22.9689C41.6437 25.2713 41.0365 26.4834 38.8397 29.7379L37.4742 31.7608L37.54 35.7145C37.5955 39.0404 37.6513 39.8842 37.8912 41.0289C38.2274 42.6334 38.815 44.2704 39.6197 45.8443C39.9394 46.4696 40.1673 47.0102 40.1262 47.0454C40.004 47.1503 20.0478 47.1183 20.0478 47.0132C20.0478 46.9602 20.23 46.5937 20.4526 46.1988C21.0374 45.1614 21.754 43.332 22.0738 42.0598C22.5142 40.3073 22.6392 38.7696 22.6392 35.0968V31.6635L21.1845 29.5721C19.6124 27.3122 19.0591 26.3532 18.4969 24.9147C16.6606 20.2151 17.3829 14.9128 20.4225 10.7813C21.1628 9.77502 21.5594 9.35877 21.7308 9.40787C21.8176 9.43271 22.5201 10.1342 23.2919 10.9668ZM31.5726 15.0415C32.3285 15.3445 33.1838 16.0877 33.5294 16.7415C33.8603 17.3675 33.8603 21.539 33.5294 22.165C32.3821 24.3357 29.0488 24.8259 27.2291 23.0915C26.3053 22.2111 26.2535 22.0179 26.2535 19.4532C26.2535 16.8886 26.3053 16.6953 27.2291 15.815C27.96 15.1183 28.8885 14.7681 30.0042 14.7681C30.6471 14.7681 31.0781 14.8432 31.5726 15.0415ZM20.9199 50.7225C20.9583 50.7759 20.9006 51.0744 20.7917 51.3856C20.5212 52.1577 20.5212 54.9524 20.7917 55.7244C20.9006 56.0356 20.9583 56.3341 20.9199 56.3876C20.8815 56.441 17.7653 56.4847 13.9951 56.4847C6.16507 56.4847 6.1243 56.4807 5.12198 55.6194C3.76846 54.4565 3.76927 52.6529 5.12361 51.4891C6.11079 50.641 6.09279 50.6428 13.9364 50.6335C17.7389 50.6289 20.8815 50.669 20.9199 50.7225ZM27.8901 53.555V56.4261L27.4834 56.4658C26.5038 56.5615 25.3833 55.9779 24.9414 55.1419C24.6135 54.5217 24.5867 52.695 24.8961 52.0587C25.3232 51.1805 26.336 50.5995 27.3446 50.6542L27.8901 50.6839V53.555ZM33.655 50.8067C34.8824 51.2473 35.3173 51.9664 35.3173 53.555C35.3173 54.8336 35.0861 55.4206 34.3818 55.9298C33.9005 56.2779 33.0439 56.518 32.4829 56.4623L32.1182 56.4261L32.0815 53.6747C32.0613 52.1613 32.0747 50.8562 32.1114 50.7742C32.2027 50.5695 33.0437 50.5872 33.655 50.8067ZM53.5873 50.8088C54.8934 51.1421 55.918 52.3493 55.918 53.555C55.918 54.2687 55.5113 55.0824 54.8864 55.6194C53.884 56.4807 53.8432 56.4847 46.0132 56.4847C42.243 56.4847 39.1268 56.441 39.0885 56.3876C39.05 56.3341 39.1077 56.0356 39.2167 55.7244C39.3484 55.3486 39.415 54.6198 39.415 53.555C39.415 52.4902 39.3484 51.7614 39.2167 51.3856C39.1077 51.0744 39.05 50.7759 39.0885 50.7225C39.1268 50.669 42.243 50.6253 46.0132 50.6253C51.8379 50.6253 52.976 50.6528 53.5873 50.8088Z" fill="#666666"/>
</svg>
